<svg width="553" height="221" viewBox="0 0 553 221" fill="none" xmlns="http://www.w3.org/2000/svg">
<path d="M164.119 171C164.122 184.328 164.025 197.157 164.179 209.984C164.231 214.29 162.719 215.843 158.293 215.692C148.309 215.35 138.302 215.258 128.317 215.535C123.406 215.671 121.958 213.851 122.011 209.163C122.287 184.846 122.373 160.526 122.447 136.207C122.469 128.882 122.114 121.555 122.162 114.23C122.208 107.304 122.776 106.842 129.572 106.836C157.394 106.81 185.216 106.834 213.038 106.781C230.176 106.749 239.665 97.3071 239.759 80.2132C239.784 75.5712 240.053 70.9193 238.471 66.3654C234.598 55.2161 226.707 49.2615 214.858 49.2277C186.536 49.1468 158.214 49.2034 129.892 49.197C122.218 49.1953 122.034 49.0241 122.004 41.4049C121.967 31.9089 122.093 22.4103 121.9 12.9178C121.812 8.5801 123.632 6.96951 127.834 6.98071C156.822 7.058 185.827 6.40799 214.794 7.20036C253.748 8.26594 280.577 36.8729 281.187 75.9809C281.527 97.7864 275.259 116.626 259.043 131.664C254.246 136.113 248.864 139.688 242.785 142.205C237.577 144.361 237.43 145.11 240.706 149.674C255.079 169.701 269.444 189.735 283.786 209.785C284.722 211.093 286.172 212.19 285.99 214.177C284.852 216.073 282.908 215.771 281.141 215.756C268.65 215.651 256.159 215.371 243.67 215.444C239.923 215.466 237.539 214.233 235.404 211.161C221.906 191.74 208.177 172.48 194.698 153.045C192.376 149.696 189.897 147.991 185.695 148.244C180.05 148.583 174.366 148.502 168.708 148.315C165.196 148.199 163.964 149.605 164.058 153.008C164.219 158.835 164.112 164.669 164.119 171Z" fill="black"/>
<path d="M391.001 49.2049C386.337 49.2069 382.145 49.5148 378.017 49.1294C373.217 48.6812 371.712 50.7384 372.184 55.1461C372.343 56.6273 372.19 58.1412 372.19 59.6402C372.192 108.94 372.2 158.24 372.195 207.54C372.194 215.607 372.171 215.531 364.323 215.445C355.497 215.349 346.669 215.408 337.841 215.397C331.241 215.389 330.991 215.128 330.993 208.78C331.013 158.147 331.028 107.515 331.037 56.8823C331.039 49.2041 331.022 49.2033 323.36 49.203C311.534 49.2025 299.706 49.0595 287.885 49.2767C283.398 49.3592 281.598 47.9158 281.72 43.2671C281.983 33.2803 282.036 23.277 281.762 13.2918C281.627 8.3547 283.666 6.91582 288.262 6.93721C314.744 7.06051 341.226 7.0236 367.708 7.02674C383.697 7.02862 399.688 7.112 415.675 6.92528C420.315 6.87109 422.327 8.31787 422.197 13.2306C421.933 23.2168 421.974 33.2178 422.179 43.2067C422.273 47.7821 420.496 49.3909 415.982 49.256C407.828 49.0122 399.662 49.1979 391.001 49.2049Z" fill="black"/>
<path d="M458.982 47.9564C452.938 35.8546 447.061 24.0859 441.202 12.3085C439.202 8.28778 439.763 7.16472 444.149 7.05533C450.476 6.89754 456.811 7.03362 463.139 6.90818C467.016 6.83134 468.504 8.58089 468.341 12.3941C468.148 16.8838 468.489 21.3988 468.239 25.8828C468.02 29.8025 469.503 31.1712 473.416 31.1248C486.242 30.9728 499.071 31.089 511.899 31.1117C518.69 31.1238 519.238 31.6791 519.258 38.5359C519.271 42.8673 519.494 47.2143 519.202 51.5258C518.912 55.7981 520.732 57.0802 524.74 56.8989C529.894 56.6657 535.067 56.9153 540.23 56.8212C543.819 56.7558 545.367 58.3178 545.282 61.934C545.145 67.7617 545.113 73.5978 545.264 79.4244C545.362 83.1898 543.621 84.3848 540.101 84.3062C533.806 84.1655 527.506 84.2666 520.568 84.2666C521.85 89.834 524.283 94.2914 527.029 98.2191C533.032 106.807 532.67 114.222 527.683 123.702C512.573 152.428 498.708 181.809 484.396 210.953C483.247 213.294 482.142 215.383 479.048 215.381C467.055 215.373 455.061 215.448 443.067 215.43C442.142 215.429 441.218 214.943 440.347 214.698C439.679 211.614 441.792 209.778 442.841 207.641C457.73 177.29 472.631 146.944 487.728 116.697C489.726 112.694 489.756 109.494 487.719 105.499C478.039 86.509 468.649 67.3712 458.982 47.9564ZM516.389 80.7748C517.881 74.544 516.696 68.2318 516.92 61.9617C516.993 59.9375 515.498 59.0815 513.594 59.0747C508.117 59.0551 502.639 59.0529 497.162 59.0871C494.736 59.1022 493.479 60.4453 493.456 62.8243C493.404 68.1362 493.438 73.4488 493.41 78.7609C493.399 80.8129 494.401 81.8945 496.417 81.8715C502.863 81.798 509.334 82.6207 516.389 80.7748Z" fill="black"/>
<path d="M48.5412 188.393C36.5203 164.013 24.7192 139.939 12.7371 115.956C10.999 112.477 11.0019 109.664 12.7505 106.163C28.3789 74.8802 43.8952 43.5403 59.2612 12.1275C61.1536 8.25897 63.5306 6.78444 67.7668 6.88115C77.9226 7.11302 88.0875 6.91848 98.2486 6.95576C104.299 6.97796 104.832 7.94874 102.225 13.1812C86.4844 44.7723 70.8058 76.3943 55.0186 107.962C53.8341 110.331 53.9612 112.224 55.0992 114.511C69.1187 142.682 83.0719 170.886 97.026 199.09C99.4965 204.083 101.893 209.113 105.16 215.851C98.6447 215.851 93.5806 215.904 88.5181 215.839C81.1937 215.745 73.8654 215.349 66.5487 215.515C62.9857 215.596 61.068 214.297 59.6219 211.192C56.1071 203.646 52.3578 196.21 48.5412 188.393Z" fill="black"/>
</svg>
